<svg width="90" height="27" viewBox="0 0 90 27" fill="none" xmlns="http://www.w3.org/2000/svg">
<path d="M0.775196 14.1044V10.3544L15.7752 3.74929V8.06392L5.50531 12.1868L5.6438 11.9631V12.4957L5.50531 12.272L15.7752 16.3949V20.7095L0.775196 14.1044ZM23.7086 1.18182L28.982 17.7585H29.1844L34.4685 1.18182H39.5822L32.0608 23H26.1162L18.5843 1.18182H23.7086ZM59.6285 8.82031H54.9623C54.877 8.21662 54.703 7.6804 54.4403 7.21165C54.1775 6.73579 53.8401 6.33097 53.4282 5.99716C53.0162 5.66335 52.5404 5.40767 52.0006 5.23011C51.468 5.05256 50.8891 4.96378 50.2641 4.96378C49.1349 4.96378 48.1512 5.24432 47.3131 5.8054C46.4751 6.35937 45.8252 7.16903 45.3635 8.23438C44.9019 9.29261 44.6711 10.5781 44.6711 12.0909C44.6711 13.6463 44.9019 14.9531 45.3635 16.0114C45.8323 17.0696 46.4857 17.8686 47.3238 18.4084C48.1618 18.9482 49.1313 19.218 50.2322 19.218C50.8501 19.218 51.4218 19.1364 51.9474 18.973C52.48 18.8097 52.9523 18.5717 53.3643 18.2592C53.7762 17.9396 54.1171 17.5526 54.387 17.098C54.664 16.6435 54.8557 16.125 54.9623 15.5426L59.6285 15.5639C59.5077 16.5653 59.2059 17.5312 58.7229 18.4616C58.2471 19.3849 57.6043 20.2124 56.7947 20.9439C55.9921 21.6683 55.0333 22.2436 53.9182 22.6697C52.8103 23.0888 51.5567 23.2983 50.1576 23.2983C48.2116 23.2983 46.4715 22.858 44.9374 21.9773C43.4104 21.0966 42.203 19.8217 41.3153 18.1527C40.4346 16.4837 39.9942 14.4631 39.9942 12.0909C39.9942 9.71165 40.4417 7.6875 41.3366 6.01847C42.2314 4.34943 43.4459 3.07812 44.98 2.20455C46.5141 1.32386 48.24 0.883522 50.1576 0.883522C51.4218 0.883522 52.5937 1.06108 53.6732 1.41619C54.7599 1.77131 55.7222 2.28977 56.5603 2.97159C57.3983 3.64631 58.0802 4.47372 58.6057 5.45383C59.1384 6.43395 59.4793 7.55611 59.6285 8.82031ZM71.754 0.159089L64.7227 26.2812H60.8129L67.8442 0.159089H71.754ZM89.2248 16.1499L74.2248 22.755V18.4403L84.4947 14.3175L84.3562 14.5412V14.0085L84.4947 14.2322L74.2248 10.1094V5.79474L89.2248 12.3999V16.1499Z" fill="#090085"/>
</svg>
